<svg viewBox="75 75 350 350" xmlns="http://www.w3.org/2000/svg">
  <text fill="rgb(255, 204, 0)" style="font-family: 'Roboto Slab'; font-size: 225.3px; white-space: pre;" x="153.976" y="318.934">♫</text>
  <path fill="rgb(170, 170, 170)" d="M 83.945 257.069 C 82.582 255.706 82.738 254.007 83.973 252.772 L 135.394 200.996 C 136.119 200.271 137.075 200.207 137.826 200.958 L 148.292 211.201 C 149.099 212.008 149.338 212.624 148.382 213.58 L 107.693 254.157 L 148.929 295.612 C 149.793 296.476 149.698 297.196 149.005 297.889 L 137.396 308.247 C 136.545 309.098 135.285 309.175 134.462 308.352 L 83.945 257.069 Z"></path>
  <path fill="rgb(170, 170, 170)" d="M 330.934 210.7 L 340.377 200.703 C 341.622 199.458 342.859 199.795 343.894 200.83 L 396.253 252.999 C 397.554 254.3 397.449 256.543 396.323 257.669 L 343.885 309.914 C 342.704 311.095 341.832 311.277 340.554 309.999 L 330.48 299.7 C 329.217 298.437 329.344 297.566 330.394 296.516 L 371.468 255.49 L 331.007 214.55 C 329.525 213.068 329.47 212.164 330.934 210.7 Z"></path>
</svg>